HIERARCHY
ROOT Hips
{
  OFFSET 267.745 86.9975 -272.335
  CHANNELS 6 Xposition Yposition Zposition Zrotation Xrotation Yrotation
  JOINT LeftUpLeg
  {
    OFFSET 8.64259 1.95398 -2.38835
    CHANNELS 3 Zrotation Xrotation Yrotation
    JOINT LeftLeg
    {
      OFFSET 43.7702 0 0
      CHANNELS 3 Zrotation Xrotation Yrotation
      JOINT LeftFoot
      {
        OFFSET 40.6238 0 0
        CHANNELS 3 Zrotation Xrotation Yrotation
        JOINT LeftToeBase
        {
          OFFSET 12.7242 0 0
          CHANNELS 3 Zrotation Xrotation Yrotation
          End Site
          {
            OFFSET 0 0 0
          }
        }
      }
    }
  }
  JOINT RightUpLeg
  {
    OFFSET -8.2249 1.95398 -2.59336
    CHANNELS 3 Zrotation Xrotation Yrotation
    JOINT RightLeg
    {
      OFFSET 43.5653 0 0
      CHANNELS 3 Zrotation Xrotation Yrotation
      JOINT RightFoot
      {
        OFFSET 40.6238 0 0
        CHANNELS 3 Zrotation Xrotation Yrotation
        JOINT RightToeBase
        {
          OFFSET 12.7242 0 0
          CHANNELS 3 Zrotation Xrotation Yrotation
          End Site
          {
            OFFSET 0 0 0
          }
        }
      }
    }
  }
  JOINT Spine
  {
    OFFSET 0.165834 0.87714 6.61349
    CHANNELS 3 Zrotation Xrotation Yrotation
    JOINT Spine1
    {
      OFFSET 7.38963 1.71661e-005 0
      CHANNELS 3 Zrotation Xrotation Yrotation
      JOINT Spine2
      {
        OFFSET 11.9445 1.14441e-005 0
        CHANNELS 3 Zrotation Xrotation Yrotation
        JOINT Spine3
        {
          OFFSET 14.7254 4.19617e-005 0
          CHANNELS 3 Zrotation Xrotation Yrotation
          JOINT Spine4
          {
            OFFSET 10.9679 0 0
            CHANNELS 3 Zrotation Xrotation Yrotation
            JOINT RightShoulder
            {
              OFFSET 2.46616 -1.6653 3.69651
              CHANNELS 3 Zrotation Xrotation Yrotation
              JOINT RightArm
              {
                OFFSET 13.0012 0 0
                CHANNELS 3 Zrotation Xrotation Yrotation
                JOINT RightForeArm
                {
                  OFFSET 28.7848 1.52588e-005 0
                  CHANNELS 3 Zrotation Xrotation Yrotation
                  JOINT RightHand
                  {
                    OFFSET 26.5688 1.52588e-005 0
                    CHANNELS 3 Zrotation Xrotation Yrotation
                    End Site
                    {
                      OFFSET 0 0 0
                    }
                  }
                }
              }
            }
            JOINT LeftShoulder
            {
              OFFSET 2.38034 -1.29275 -3.7523
              CHANNELS 3 Zrotation Xrotation Yrotation
              JOINT LeftArm
              {
                OFFSET 16.3182 6.10352e-005 0
                CHANNELS 3 Zrotation Xrotation Yrotation
                JOINT LeftForeArm
                {
                  OFFSET 27.0901 0 0
                  CHANNELS 3 Zrotation Xrotation Yrotation
                  JOINT LeftHand
                  {
                    OFFSET 24.5451 1.52588e-005 0
                    CHANNELS 3 Zrotation Xrotation Yrotation
                    End Site
                    {
                      OFFSET 0 0 0
                    }
                  }
                }
              }
            }
            JOINT Neck
            {
              OFFSET 5.0226 -0.0266342 0
              CHANNELS 3 Zrotation Xrotation Yrotation
              JOINT Head
              {
                OFFSET 6.69364 2.86102e-005 0
                CHANNELS 3 Zrotation Xrotation Yrotation
                End Site
                {
                  OFFSET 0 0 0
                }
              }
            }
          }
        }
      }
    }
  }
}
MOTION
Frames:	7
Frame Time:	0.0416667
99.5533 95.8624 -60.0124 -110.508 -65.5122 -108.29 -179.213 16.9684 89.302 -55.2672 10.4922 3.11349 55.1536 1.95328 7.72819 55.8636 -2.18525 6.90849 174.96 6.70856 90.5183 -34.9686 -2.90067 0.636445 71.1838 4.68976 14.9485 24.2842 0.898248 1.70216 -0.084427 7.756 -90.4236 11.3598 -0.365499 -0.806963 -0.311306 -0.400661 -0.79011 -22.8445 -0.106091 -0.879498 -2.83187 -0.106087 -0.879508 102.72 -50.723 -81.3105 29.733 -6.67764 -4.36086 -5.63095 -19.3268 -22.5958 -8.14921 -0.375042 0.187505 -81.358 -51.6512 91.6311 -32.6877 -7.11798 -7.44938 6.42849 46.5893 -8.11367 -6.78366 -0.0580079 -5.21409 -6.9473 -4.14598 -7.04025 -25.5943 -4.00199 2.08252 
95.1795 95.9955 -53.1099 -107.276 -62.6096 -105.136 -179.696 16.9311 89.4976 -28.1986 8.63652 2.23663 52.7082 1.04484 8.0644 54.484 -2.15396 6.93011 175.176 0.691826 90.1122 -32.3943 -3.44835 -0.0940437 72.705 3.26659 16.0762 27.958 -0.0166996 2.38004 0.0451156 7.79465 -90.3867 11.2838 -0.090258 -0.760826 -0.38738 -0.123656 -0.756125 -22.9208 0.142563 -0.752779 -2.90818 0.142559 -0.75279 102.734 -50.3304 -81.2843 28.4386 -9.16411 -7.68082 -3.583 -12.6787 -25.6273 -13.1254 -0.38632 -1.84101 -81.3307 -52.6899 91.7355 -31.5367 -10.2692 -0.446574 7.61144 46.4867 -9.00145 -6.87059 -0.118341 -3.58587 -6.6258 -4.13922 -6.7286 -24.6561 -4.01355 2.26675 
90.9196 95.5811 -46.1341 -102.428 -59.4161 -99.1294 179.261 16.9612 91.35 -7.21724 16.5285 3.4941 54.2215 -0.0340181 5.2533 45.405 -1.58777 8.00574 175.242 -3.48913 92.0935 -30.2256 -6.17748 -0.200205 71.3267 2.36216 16.9473 34.5791 -1.57799 3.19505 0.1979 7.74147 -90.4946 11.3901 0.163073 -1.00139 -0.281247 0.118844 -1.0076 -22.8138 0.456483 -0.906103 -2.8011 0.456476 -0.906108 102.646 -50.4949 -81.4232 26.7618 -9.73357 -10.2226 -6.4865 -14.3026 -29.586 -12.3968 -0.471012 -0.834299 -81.3817 -53.3646 91.701 -31.2682 -11.753 2.2775 7.80113 46.4665 -8.89093 -11.5477 -0.034654 -5.0367 -7.37149 -4.00429 -7.14909 -23.4374 -3.93279 2.64576 
86.2977 94.3815 -38.0554 -100.259 -54.775 -96.8838 178.672 17.7786 91.7156 -9.099 22.01 5.35076 51.1235 -3.57211 3.92985 46.4026 -1.76199 5.75242 175.446 -6.91352 90.0395 -32.7518 -11.5224 -1.91149 67.8618 3.07775 17.9344 44.6045 -3.62031 4.84096 0.384893 7.71777 -90.3642 11.439 0.595735 -0.787588 -0.232051 0.560505 -0.813048 -22.7671 0.804911 -0.572136 -2.75442 0.804903 -0.572145 101.562 -50.8899 -83.0988 27.2228 -9.27761 -8.62729 -7.38446 -14.8391 -30.8837 -13.7964 -0.548997 -0.574223 -80.5298 -53.3989 92.9479 -30.7131 -11.061 1.99136 8.30597 46.1428 -10.0199 -12.6817 -0.0376294 -4.95684 -8.27414 -4.26593 -7.62888 -24.1174 -4.22674 2.57793 
81.4923 93.1621 -29.6056 -102.209 -52.2119 -101.089 178.002 19.0022 88.8979 -24.1225 22.1584 4.45196 49.787 -4.81358 9.6653 43.128 -1.60294 0.0243637 173.962 -8.72967 84.7193 -39.7345 -12.9037 -3.22589 57.186 7.95432 22.6581 48.6461 -3.78116 12.2913 0.241929 7.90872 -89.8771 11.056 0.538636 0.192794 -0.614802 0.546607 0.168889 -23.1505 0.455789 0.345766 -3.13789 0.455786 0.345767 102.151 -50.8685 -82.1903 29.7554 -8.11919 -6.90797 -6.62784 -17.3133 -26.6532 -11.3366 -0.454574 -0.539328 -80.4684 -53.2282 93.0301 -29.522 -10.2344 -2.10678 7.7607 46.1365 -9.36925 -9.26858 -0.0754118 -4.62078 -9.13049 -4.91195 -7.44873 -22.7325 -4.75813 1.61956 
77.1743 92.539 -22.7009 -101.199 -48.5489 -101.7 -178.458 18.0276 87.2803 -33.3139 20.1999 2.66441 57.9687 0.185327 14.3768 42.4055 -1.53014 -2.49798 174.579 1.09532 81.9373 -59.3765 -12.9654 -3.71912 44.3469 12.0502 18.4285 23.8111 0.821602 2.72807 0.0557222 7.97517 -89.5245 10.9202 0.330854 0.914532 -0.75105 0.370806 0.899072 -23.2834 0.0407217 0.971686 -3.27079 0.0407212 0.971675 101.872 -50.8275 -82.6209 32.2499 -7.44309 -6.15634 -5.51241 -22.5444 -20.1965 -8.23279 -0.361258 -0.0143417 -81.3899 -53.1737 91.6776 -27.3473 -8.39542 -8.70825 6.30132 42.7794 -8.55518 -6.13762 -0.113474 -3.86247 -9.13926 -5.3274 -4.82679 -21.8821 -4.87303 -1.25142 
72.445 93.5453 -16.5029 -101.378 -45.5134 -100.832 -176.602 11.8827 88.1538 -33.6208 17.6447 2.33062 62.3106 3.2308 14.7951 43.8434 -1.70916 -1.51578 174.61 13.121 84.4917 -71.5344 -10.614 -2.88735 46.818 10.4538 15.9743 21.2418 2.29529 -2.50372 -0.376183 8.1283 -89.5611 10.6205 -0.547245 0.922312 -1.05066 -0.506116 0.945496 -23.5852 -0.799141 0.715207 -3.5725 -0.79914 0.715219 102.005 -50.9681 -82.4151 33.648 -7.76104 -5.41702 -5.29299 -24.4013 -18.7548 -6.13352 -0.34554 1.42919 -81.4302 -52.6688 91.5869 -25.2462 -6.3742 -17.6552 5.28409 39.1974 -8.32275 -4.05213 -0.0968027 -3.66897 -8.59696 -5.12501 -3.38073 -21.052 -4.79839 -0.902445 
